<svg xmlns="http://www.w3.org/2000/svg"  viewBox="0 0 64 64" width="48px" height="48px" baseProfile="basic"><path d="M41.242,35.833c2.088,1.854,2.522,2.515,2.593,2.628C44.7,39.833,42.876,40,42.876,40H39.03c0,0-0.936,0.01-1.736-0.52	c-1.304-0.854-2.669-2.51-3.63-2.222c-0.805,0.241-0.797,1.329-0.797,2.26c0,0.333-0.286,0.483-0.933,0.483h-1.202	c-2.107,0-4.392-0.709-6.672-3.092c-3.226-3.368-6.055-10.154-6.055-10.154s-0.167-0.342,0.015-0.55	c0.206-0.233,0.767-0.203,0.767-0.203L22.516,26c0,0,0.351,0.066,0.603,0.244c0.208,0.146,0.324,0.424,0.324,0.424	s0.626,2.068,1.424,3.387c1.559,2.574,2.284,2.639,2.813,2.362c0.773-0.401,0.521-3.138,0.521-3.138s0.035-1.175-0.369-1.699	c-0.311-0.405-0.905-0.621-1.165-0.654c-0.21-0.027,0.141-0.395,0.588-0.605c0.597-0.266,1.41-0.334,2.812-0.321	c1.091,0.01,1.406,0.076,1.831,0.174c1.287,0.297,0.969,1.08,0.969,3.829c0,0.881-0.121,2.12,0.543,2.53	c0.286,0.177,1.268,0.394,3.016-2.444c0.83-1.345,1.49-3.578,1.49-3.578s0.136-0.245,0.348-0.367	c0.216-0.124,0.21-0.121,0.507-0.121c0.297,0,3.273-0.023,3.926-0.023c0.652,0,1.265-0.007,1.37,0.375	c0.151,0.55-0.481,2.433-2.085,4.477C39.349,34.207,39.056,33.893,41.242,35.833z"/><path  d="M32,54c-12.131,0-22-9.869-22-22s9.869-22,22-22s22,9.869,22,22S44.131,54,32,54z M32,14	c-9.925,0-18,8.075-18,18s8.075,18,18,18s18-8.075,18-18S41.925,14,32,14z"/></svg>